<?xml version="1.0" encoding="UTF-8" standalone="no"?>
<svg id="Capa_1" style="enable-background:new 0 0 512.007 512.007" xmlns="http://www.w3.org/2000/svg" xml:space="preserve" viewBox="0 0 512.007 512.007" height="512px" width="512px" version="1.1" y="0px" x="0px" xmlns:xlink="http://www.w3.org/1999/xlink" class="">
		<path data-original="#000000" fill="#fff" d="m397.41 199.3c-2.944-4.576-8-7.296-13.408-7.296h-112v-176c0-7.552-5.28-14.08-12.672-15.648-7.52-1.6-14.88 2.272-17.952 9.152l-128 288c-2.208 4.928-1.728 10.688 1.216 15.2 2.944 4.544 8 7.296 13.408 7.296h112v176c0 7.552 5.28 14.08 12.672 15.648 1.12 0.224 2.24 0.352 3.328 0.352 6.208 0 12-3.616 14.624-9.504l128-288c2.17-4.96 1.76-10.65-1.22-15.2z" data-old_color="#ffffff" class="active-path"/>
 </svg>
