<?xml version="1.0" encoding="UTF-8" standalone="no"?>
<svg id="Capa_1" style="enable-background:new 0 0 407.686 407.686" xmlns="http://www.w3.org/2000/svg" xml:space="preserve" viewBox="0 0 407.686 407.686" height="512px" width="512px" version="1.1" y="0px" x="0px" xmlns:xlink="http://www.w3.org/1999/xlink"><g fill="#fff">
	<path data-original="#000000" d="m400.19 92.376h-17.95v-16.984c0-3.804-2.848-7.005-6.625-7.449l-104.01-12.214c-23.323-2.74-46.669 1.16-67.769 11.282-21.101-10.122-44.443-14.023-67.769-11.282l-104 12.214c-3.777 0.444-6.625 3.645-6.625 7.449v16.984h-17.945c-4.143 0-7.5 3.358-7.5 7.5v245.43c0 4.142 3.357 7.5 7.5 7.5h392.69c4.143 0 7.5-3.358 7.5-7.5v-245.43c0-4.146-3.36-7.504-7.5-7.504zm-130.33-21.749l97.374 11.436v223.06l-95.624-11.23c-20.593-2.419-41.202 0.347-60.269 7.993v-221.82c18.27-8.53 38.41-11.795 58.52-9.433zm-132.04 0c20.112-2.363 40.249 0.903 58.519 9.438v221.82c-14.584-5.848-30.068-8.847-45.758-8.847-4.823 0-9.668 0.283-14.511 0.851l-95.625 11.23v-223.05l97.375-11.433zm254.87 267.18h-377.69v-230.43h10.449v206.18c0 2.142 0.915 4.181 2.516 5.604 1.6 1.423 3.733 2.095 5.859 1.845l104-12.214c21.608-2.539 43.248 1.412 62.567 11.424 2.164 1.122 4.738 1.122 6.902 0 19.318-10.012 40.95-13.963 62.567-11.424l104 12.214c0.292 0.034 0.584 0.051 0.875 0.051 1.827 0 3.604-0.668 4.984-1.896 1.601-1.423 2.516-3.462 2.516-5.604v-206.17h10.45v230.43z" data-old_color="#ffffff" class="active-path"/>
	<path data-original="#000000" d="m228.62 112.88c13.442-3.652 27.276-4.679 41.107-3.056l78.085 9.168c0.298 0.035 0.593 0.052 0.885 0.052 3.751 0 6.991-2.809 7.439-6.626 0.482-4.114-2.461-7.84-6.574-8.323l-78.086-9.168c-15.75-1.849-31.491-0.678-46.788 3.479-3.998 1.086-6.357 5.207-5.271 9.204 1.08 4 5.2 6.36 9.2 5.28z" data-old_color="#ffffff" class="active-path"/>
	<path data-original="#000000" d="m58.714 119.04c0.292 0 0.588-0.017 0.885-0.052l78.078-9.167c13.813-1.609 27.808-0.558 41.109 3.065 3.995 1.087 8.119-1.268 9.207-5.266 1.089-3.997-1.269-8.119-5.266-9.207-15.144-4.125-31.062-5.323-46.794-3.49l-78.085 9.168c-4.113 0.483-7.057 4.209-6.574 8.323 0.442 3.83 3.682 6.64 7.433 6.64z" data-old_color="#ffffff" class="active-path"/>
	<path data-original="#000000" d="m228.62 147.28c13.442-3.652 27.274-4.679 41.107-3.056l78.085 9.168c0.298 0.035 0.593 0.052 0.885 0.052 3.751 0 6.991-2.809 7.439-6.626 0.482-4.114-2.461-7.84-6.574-8.323l-78.086-9.168c-15.748-1.848-31.49-0.678-46.788 3.479-3.998 1.086-6.357 5.207-5.271 9.204 1.08 4 5.2 6.36 9.2 5.28z" data-old_color="#ffffff" class="active-path"/>
	<path data-original="#000000" d="m58.714 153.44c0.292 0 0.588-0.017 0.885-0.052l78.078-9.167c13.804-1.608 27.807-0.558 41.109 3.065 3.995 1.087 8.119-1.268 9.207-5.266 1.089-3.997-1.269-8.119-5.266-9.207-15.146-4.125-31.069-5.323-46.794-3.49l-78.085 9.168c-4.113 0.483-7.057 4.209-6.574 8.323 0.442 3.83 3.682 6.64 7.433 6.64z" data-old_color="#ffffff" class="active-path"/>
	<path data-original="#000000" d="m228.62 181.68c13.442-3.652 27.274-4.679 41.107-3.056l78.085 9.168c0.298 0.035 0.593 0.052 0.885 0.052 3.751 0 6.991-2.809 7.439-6.626 0.482-4.114-2.461-7.84-6.574-8.323l-78.086-9.168c-15.748-1.848-31.49-0.677-46.788 3.479-3.998 1.086-6.357 5.207-5.271 9.204 1.08 4.01 5.2 6.36 9.2 5.28z" data-old_color="#ffffff" class="active-path"/>
	<path data-original="#000000" d="m58.714 187.84c0.292 0 0.588-0.017 0.885-0.052l78.078-9.167c13.803-1.608 27.807-0.558 41.109 3.065 3.995 1.088 8.119-1.268 9.207-5.266 1.089-3.997-1.269-8.119-5.266-9.207-15.145-4.125-31.068-5.323-46.794-3.491l-78.085 9.168c-4.113 0.483-7.057 4.209-6.574 8.323 0.442 3.83 3.682 6.64 7.433 6.64z" data-old_color="#ffffff" class="active-path"/>
	<path data-original="#000000" d="m228.62 216.08c13.44-3.652 27.272-4.68 41.107-3.056l78.085 9.168c0.298 0.035 0.593 0.052 0.885 0.052 3.751 0 6.991-2.809 7.439-6.626 0.482-4.114-2.461-7.84-6.574-8.323l-78.086-9.168c-15.748-1.847-31.489-0.678-46.788 3.479-3.998 1.086-6.357 5.207-5.271 9.204 1.08 4.01 5.2 6.37 9.2 5.28z" data-old_color="#ffffff" class="active-path"/>
	<path data-original="#000000" d="m58.714 222.24c0.292 0 0.588-0.017 0.885-0.052l78.078-9.167c13.8-1.609 27.805-0.559 41.109 3.065 3.995 1.087 8.119-1.268 9.207-5.266 1.089-3.997-1.269-8.119-5.266-9.207-15.145-4.125-31.072-5.323-46.794-3.49l-78.085 9.168c-4.113 0.483-7.057 4.209-6.574 8.323 0.442 3.83 3.682 6.64 7.433 6.64z" data-old_color="#ffffff" class="active-path"/>
	<path data-original="#000000" d="m349.56 241.69l-78.086-9.168c-15.751-1.848-31.492-0.677-46.788 3.479-3.998 1.086-6.357 5.207-5.271 9.204 1.086 3.998 5.21 6.358 9.203 5.271 13.442-3.651 27.276-4.678 41.107-3.056l78.085 9.168c0.298 0.035 0.593 0.052 0.885 0.052 3.751 0 6.991-2.809 7.439-6.626 0.5-4.1-2.45-7.82-6.56-8.31z" data-old_color="#ffffff" class="active-path"/>
	<path data-original="#000000" d="m58.714 256.64c0.292 0 0.588-0.017 0.885-0.052l78.078-9.167c13.804-1.608 27.807-0.558 41.109 3.065 3.995 1.088 8.119-1.268 9.207-5.266 1.089-3.997-1.269-8.119-5.266-9.207-15.146-4.125-31.069-5.323-46.794-3.49l-78.085 9.168c-4.113 0.483-7.057 4.209-6.574 8.323 0.442 3.84 3.682 6.64 7.433 6.64z" data-old_color="#ffffff" class="active-path"/>
</g> </svg>
